<?xml version="1.0" encoding="UTF-8" standalone="no"?>
<svg
   width="16"
   height="16"
   version="1.1"
   id="svg4"
   xmlns:xlink="http://www.w3.org/1999/xlink"
   xmlns="http://www.w3.org/2000/svg"
   xmlns:svg="http://www.w3.org/2000/svg">
  <defs
     id="defs8">
    <linearGradient
       id="linearGradient8633">
      <stop
         style="stop-color:#ff6674;stop-opacity:1;"
         offset="0"
         id="stop8629" />
      <stop
         style="stop-color:#2beb85;stop-opacity:1;"
         offset="0.72162688"
         id="stop8643" />
      <stop
         style="stop-color:#00f1d9;stop-opacity:1;"
         offset="1"
         id="stop8639" />
    </linearGradient>
    <linearGradient
       xlink:href="#linearGradient8633"
       id="linearGradient8637"
       x1="5"
       y1="8"
       x2="11"
       y2="8"
       gradientUnits="userSpaceOnUse"
       gradientTransform="translate(-5.0717968,2.9282032)" />
  </defs>
  <path
     id="rect430"
     style="font-variation-settings:'wght' 299;fill:#e0e0e0;fill-opacity:1;stroke:none;stroke-width:4.235;stroke-linecap:round;stroke-dasharray:none;stroke-opacity:1"
     d="M 5,1 C 2.7840022,1 1,2.7840022 1,5 v 6 c 0,2.215998 1.7840022,4 4,4 h 6 c 2.215998,0 4,-1.784002 4,-4 V 5 C 15,2.7840022 13.215998,1 11,1 Z m 3,2 c 2.769997,0 5,2.2300028 5,5 0,2.769997 -2.230003,5 -5,5 C 5.2300028,13 3,10.769997 3,8 3,5.2300028 5.2300028,3 8,3 Z" />
  <circle
     style="font-variation-settings:'wght' 299;fill:url(#linearGradient8637);fill-opacity:1;stroke:none;stroke-width:4.5375;stroke-linecap:round;stroke-dasharray:none;stroke-opacity:1"
     id="path4949"
     cx="2.9282033"
     cy="10.928204"
     r="3"
     transform="rotate(-30)" />
  <path
     id="circle6405"
     style="font-variation-settings:'wght' 299;fill:#e0e0e0;fill-opacity:1;stroke:none;stroke-width:4.5375;stroke-linecap:round;stroke-dasharray:none;stroke-opacity:1"
     d="M 12.43711,6.6945712 C 12.42395,6.6555112 12.41213,6.6159992 12.39805,6.5773838 12.37009,6.5007318 12.33975,6.4256454 12.30821,6.3508212 12.27667,6.2759972 12.24362,6.2010577 12.2086,6.128165 12.17358,6.055272 12.13762,5.9841793 12.099226,5.9133212 c -0.0384,-0.070858 -0.07943,-0.140264 -0.121094,-0.2089843 -0.04167,-0.06872 -0.08407,-0.1366456 -0.128906,-0.203125 -0.04484,-0.06648 -0.09077,-0.1331303 -0.138672,-0.1972657 -0.04791,-0.064135 -0.09757,-0.1258118 -0.148438,-0.1875 C 11.511242,5.0547581 11.457635,4.9939435 11.403907,4.9348056 11.350179,4.8756678 11.296329,4.8174618 11.239844,4.7609775 11.18336,4.7044932 11.125154,4.6506427 11.066016,4.596915 11.006879,4.5431873 10.946064,4.4895798 10.884376,4.4387119 10.822688,4.387844 10.761011,4.3381793 10.696876,4.2902744 10.63274,4.2423694 10.56609,4.1964414 10.49961,4.1516025 10.433131,4.1067636 10.365205,4.0643659 10.296485,4.0226962 10.227765,3.9810262 10.158359,3.9400002 10.087501,3.9016025 10.016643,3.8632055 9.94555,3.8272495 9.872657,3.7922275 9.799764,3.7572055 9.724825,3.7241615 9.650001,3.6926185 9.575181,3.6610755 9.500091,3.6307355 9.423438,3.6027745 9.346788,3.5748135 9.269394,3.5489255 9.191016,3.5246495 9.112636,3.5003735 9.032735,3.4767785 8.952735,3.4562905 8.872735,3.4358025 8.792066,3.4181995 8.710548,3.4016035 8.629028,3.3850065 8.547388,3.3692835 8.464454,3.3566815 8.381524,3.3440795 8.296747,3.3339365 8.212501,3.3254315 8.128251,3.3169315 8.044051,3.3102045 7.958594,3.3059005 7.873138,3.3015955 7.787344,3.30004 7.700782,3.30004 c -0.01245,0 -0.02468,-9e-5 -0.03711,0 A 3,3 0 0 0 7.4,4.4992588 3,3 0 0 0 7.41367,4.6730869 3,3 0 0 1 8.399998,4.4992588 a 3,3 0 0 1 2.99414,2.8222656 3,3 0 0 0 1.042969,-0.6269532 z" />
  <path
     id="path7873"
     style="font-variation-settings:'wght' 299;fill:#e0e0e0;fill-opacity:1;stroke:none;stroke-width:4.5375;stroke-linecap:round;stroke-dasharray:none;stroke-opacity:1"
     d="M 10.699219,1.1992188 A 3,3 0 0 0 7.9628906,3 C 7.9753219,2.99991 7.9875467,3 8,3 c 0.086562,0 0.1723564,0.00156 0.2578125,0.00586 0.085456,0.0043 0.1696596,0.011027 0.2539063,0.019531 0.084247,0.0085 0.169019,0.018648 0.2519531,0.03125 0.082934,0.012602 0.1645753,0.028325 0.2460937,0.044922 0.081518,0.016597 0.162188,0.0342 0.2421875,0.054687 0.08,0.020488 0.1599037,0.044083 0.2382813,0.068359 0.078378,0.024276 0.1557694,0.050164 0.2324218,0.078125 0.076652,0.027961 0.1517384,0.058301 0.2265626,0.089844 0.074824,0.031543 0.1497632,0.064588 0.2226562,0.099609 0.07289,0.035022 0.143986,0.070978 0.214844,0.109375 0.07086,0.038397 0.140264,0.079424 0.208984,0.1210937 0.06872,0.04167 0.136646,0.084067 0.203125,0.1289063 0.06648,0.044839 0.13313,0.090767 0.197266,0.1386719 0.06414,0.047905 0.125812,0.09757 0.1875,0.1484375 0.06169,0.050868 0.122503,0.1044754 0.18164,0.1582031 0.05914,0.053728 0.117344,0.1075782 0.173828,0.1640625 0.05649,0.056484 0.110335,0.1146903 0.164063,0.1738281 0.05373,0.059138 0.107335,0.1199525 0.158203,0.1816406 0.05087,0.061688 0.100533,0.1233647 0.148438,0.1875 0.0479,0.064135 0.09383,0.1307862 0.138672,0.1972657 0.04484,0.066479 0.08724,0.1344046 0.128906,0.203125 0.04167,0.06872 0.0827,0.1381263 0.121094,0.2089843 0.0384,0.070858 0.07435,0.1419511 0.109374,0.2148438 0.03502,0.072893 0.06807,0.1478321 0.09961,0.2226562 0.03154,0.074824 0.06188,0.1499101 0.08984,0.2265626 0.01409,0.038616 0.0259,0.078127 0.03906,0.1171874 a 3,3 0 0 0 0.962891,-2.1953124 3,3 0 0 0 -3,-3 z" />
  <circle
     style="font-variation-settings:'wght' 299;fill:#e0e0e0;fill-opacity:1;stroke:none;stroke-width:0.756251;stroke-linecap:round;stroke-dasharray:none;stroke-opacity:1"
     id="circle8602"
     cx="4.5"
     cy="9.5"
     r="0.5" />
  <circle
     style="font-variation-settings:'wght' 299;fill:#e0e0e0;fill-opacity:1;stroke:none;stroke-width:0.756251;stroke-linecap:round;stroke-dasharray:none;stroke-opacity:1"
     id="circle8604"
     cx="6.5"
     cy="11.5"
     r="0.5" />
</svg>
