<?xml version="1.0" encoding="UTF-8" standalone="no"?><!DOCTYPE svg PUBLIC "-//W3C//DTD SVG 1.1//EN" "http://www.w3.org/Graphics/SVG/1.1/DTD/svg11.dtd"><svg width="100%" height="100%" viewBox="0 0 16 16" version="1.1" xmlns="http://www.w3.org/2000/svg" xmlns:xlink="http://www.w3.org/1999/xlink" xml:space="preserve" xmlns:serif="http://www.serif.com/" style="fill-rule:evenodd;clip-rule:evenodd;stroke-linejoin:round;stroke-miterlimit:2;"><path d="M14.816,13c-0.414,1.163 -1.512,2 -2.816,2c-1.304,0 -2.403,-0.837 -2.816,-2l5.633,0Z" style="fill:#ff4596;"/><path d="M9.184,13c-0.112,-0.314 -0.184,-0.656 -0.184,-1c0,-0.344 0.092,-0.674 0.23,-1l5.539,0c0.137,0.326 0.23,0.656 0.23,1c0,0.344 -0.072,0.686 -0.184,1l-5.633,0Z" style="fill:#8045ff;"/><path d="M9.23,11c0.274,-0.658 0.769,-1.31 1.34,-2l2.859,0c0.57,0.69 1.065,1.342 1.34,2l-5.539,0Z" style="fill:#45d7ff;"/><path d="M10.57,9c0.482,-0.612 1,-1.253 1.429,-1.998c0.43,0.745 0.947,1.386 1.431,1.998l-2.859,0Z" style="fill:#45ffa2;"/><path id="path63" d="M11,5l-6,0l0,6l2.117,0c0.18,-0.784 0.545,-1.435 0.938,-2c0.14,-0.203 0.285,-0.402 0.424,-0.584c0.386,-0.505 0.764,-0.968 1.104,-1.416c0.257,-0.338 0.495,-0.67 0.686,-1c0.357,-0.619 0.732,-1 0.732,-1Z" style="fill:url(#_Linear1);fill-rule:nonzero;"/><path id="path62" d="M2,1c-0.549,0 -1,0.451 -1,1l0,12c0,0.549 0.451,1 1,1l6.037,0c-0.45,-0.591 -0.764,-1.274 -0.92,-2l-4.117,0l0,-10l10,0l0,2c0.304,0.176 0.557,0.696 0.732,1c0.188,0.327 0.429,0.66 0.686,1c0.186,0.246 0.38,0.494 0.582,0.75l0,-5.75c0,-0.549 -0.451,-1 -1,-1l-12,0Z" style="fill:url(#_Linear2);fill-rule:nonzero;"/><defs><linearGradient id="_Linear1" x1="0" y1="0" x2="1" y2="0" gradientUnits="userSpaceOnUse" gradientTransform="matrix(0,16.000001,-16.000001,0,0.000002,0.000002)"><stop offset="0" style="stop-color:#40d6f2;stop-opacity:1"/><stop offset="0.32" style="stop-color:#4eff89;stop-opacity:1"/><stop offset="0.72" style="stop-color:#f3f902;stop-opacity:1"/><stop offset="1" style="stop-color:#ffa843;stop-opacity:1"/></linearGradient><linearGradient id="_Linear2" x1="0" y1="0" x2="1" y2="0" gradientUnits="userSpaceOnUse" gradientTransform="matrix(0,16.000001,-16.000001,0,0.000002,0.000002)"><stop offset="0" style="stop-color:#40d6f2;stop-opacity:1"/><stop offset="0.32" style="stop-color:#4eff89;stop-opacity:1"/><stop offset="0.72" style="stop-color:#f3f902;stop-opacity:1"/><stop offset="1" style="stop-color:#ffa843;stop-opacity:1"/></linearGradient></defs></svg>