<?xml version="1.0" encoding="UTF-8" standalone="no"?>
<!-- Created with Inkscape (http://www.inkscape.org/) -->

<svg
   width="48"
   height="48"
   viewBox="0 0 48 48"
   version="1.1"
   id="svg1"
   xml:space="preserve"
   xmlns="http://www.w3.org/2000/svg"
   xmlns:svg="http://www.w3.org/2000/svg"><defs
     id="defs1" /><g
     style="display:inline;fill:#333f67;fill-opacity:1"
     id="g4"
     transform="matrix(0.0375,0,0,0.0375,1.5416667,42)"><path
       id="path4"
       style="fill:#333f67;fill-opacity:1"
       d="m 599.98242,-867.19141 c -104.95648,0 -201.24126,39.52646 -274.61719,113.29688 -11.06709,11.12659 -21.26136,22.82041 -30.76171,34.91797 a 67.19898,67.19898 0 0 0 -54.6211,-28.21485 H 79.982422 A 67.19898,67.19898 0 0 0 12.791016,-680 v 80 a 67.19898,67.19898 0 0 0 2.839843,17.92578 A 67.19898,67.19898 0 0 0 -27.208984,-520 v 80 A 67.19898,67.19898 0 0 0 15.630859,-377.92578 67.19898,67.19898 0 0 0 12.791016,-360 v 80 a 67.19898,67.19898 0 0 0 67.191406,67.19141 H 239.98242 a 67.19898,67.19898 0 0 0 54.44141,-27.86328 c 9.58511,12.19758 19.88045,23.9742 31.06836,35.1621 73.39874,73.39875 169.60165,112.701176 274.49023,112.701176 33.15684,0 64.83273,-4.104456 94.7168,-11.289066 a 67.19898,67.19898 0 0 0 51.48437,-65.33007 v -163.27735 h 164.58008 a 67.19898,67.19898 0 0 0 65.30274,-51.36523 c 7.47981,-30.8631 11.10742,-62.97215 11.10742,-95.92969 0,-104.40729 -39.56762,-200.41918 -113.16992,-274.02148 -73.60231,-73.60231 -169.6142,-113.16993 -274.02149,-113.16993 z" /></g><g
     style="fill:#ffffff"
     id="g3"
     transform="matrix(0.05,0,0,0.05,0,48)"><path
       id="path3"
       style="fill:#333f67;fill-opacity:1"
       d="m 180,-883.86133 c -26.90379,0 -54.37707,11.44153 -73.39844,30.46289 -19.0239,19.0239 -30.462888,46.50645 -30.462888,73.39844 v 117.46094 A 43.86658,43.86658 0 0 0 120,-618.67773 h 60 a 43.86658,43.86658 0 0 0 43.86133,-43.86133 v -73.59961 h 512.27734 v 312.27734 H 580 A 43.86658,43.86658 0 0 0 536.13867,-380 v 156.13867 H 223.86133 v -73.59961 A 43.86658,43.86658 0 0 0 180,-341.32227 h -60 a 43.86658,43.86658 0 0 0 -43.861328,43.86133 V -180 c 0,26.88374 11.426709,54.36124 30.455078,73.38867 0.003,0.003 0.007,0.005 0.01,0.008 0.003,0.003 0.005,0.007 0.008,0.01 19.02743,19.028369 46.50493,30.455078 73.38867,30.455078 h 420 a 43.86658,43.86658 0 0 0 31.01562,-12.845703 l 240,-239.999995 A 43.86658,43.86658 0 0 0 883.86133,-360 v -420 c 0,-26.90379 -11.44868,-54.3715 -30.45508,-73.38867 a 43.86658,43.86658 0 0 0 -0.0176,-0.0176 C 834.3715,-872.41265 806.90379,-883.86133 780,-883.86133 Z" /></g><g
     id="layer1"><g
       style="display:inline;fill:#ffffff"
       id="g1"
       transform="matrix(0.0375,0,0,0.0375,1.5416667,42)"><path
         id="path1"
         d="m 599.98264,-800 c -89.33333,0 -164.97917,31.15625 -226.97917,93.48958 -62,62.33333 -93.02083,137.84375 -93.02083,226.51042 0,89.33333 31.02083,164.97917 93.02083,226.97917 62,62 137.64584,93.02083 226.97917,93.02083 27.66091,0 53.91232,-3.3931 79.01041,-9.42708 v -177.23959 c 0.003,-29.39624 23.83293,-53.22516 53.22917,-53.22916 h 178.54167 c 6.14448,-25.35325 9.21875,-52.05655 9.21875,-80.10417 0,-88.66667 -31.15626,-164.17709 -93.48959,-226.51042 C 764.15972,-768.84375 688.64931,-800 599.98264,-800 Z m -41.09375,73.33333 h 80 l -1.68403,305.12153 -169.24865,151.15771 -53.87595,-59.30998 145.90238,-133.32342 z M 79.982638,-680 v 80 H 239.98264 v -80 z m -40,160 v 80 H 239.98264 v -80 z m 40,160 v 80 H 239.98264 v -80 z"
         style="fill:#eff1f5;fill-opacity:1" /></g><g
       style="fill:#ffffff"
       id="g2"
       transform="matrix(0.05,0,0,0.05,0,48)"><path
         id="path1-6"
         d="m 180,-840 c -16.5,0 -30.63614,5.87052 -42.38281,17.61719 C 125.86386,-810.62948 120,-796.5 120,-780 v 117.46094 h 60 V -780 h 600 v 400 H 580 v 200 H 180 V -297.46094 H 120 V -180 c 0,16.5 5.86386,30.63614 17.61719,42.38281 C 149.36386,-125.86386 163.5,-120 180,-120 h 420 l 240,-240 v -420 c 0,-16.5 -5.87052,-30.62948 -17.61719,-42.38281 C 810.62948,-834.12948 796.5,-840 780,-840 Z"
         style="fill:#3d8ecb;fill-opacity:1" /></g></g></svg>
