<?xml version="1.0" encoding="UTF-8" standalone="no"?>
<!-- Created with Inkscape (http://www.inkscape.org/) -->

<svg
   width="48"
   height="48"
   viewBox="0 0 48 48"
   version="1.1"
   id="svg1"
   xml:space="preserve"
   xmlns="http://www.w3.org/2000/svg"
   xmlns:svg="http://www.w3.org/2000/svg"><defs
     id="defs1" /><g
     id="layer1"><g
       style="display:inline;fill:#ffffff"
       id="g1"
       transform="matrix(0.0375,0,0,0.0375,1.5416667,42)"><path
         id="path1"
         d="m 599.98264,-800 c -89.33333,0 -164.97917,31.15625 -226.97917,93.48958 -62,62.33333 -93.02083,137.84375 -93.02083,226.51042 0,89.33333 31.02083,164.97917 93.02083,226.97917 62,62 137.64584,93.02083 226.97917,93.02083 27.66091,0 53.91232,-3.3931 79.01041,-9.42708 v -177.23959 c 0.003,-29.39624 23.83293,-53.22516 53.22917,-53.22916 h 178.54167 c 6.14448,-25.35325 9.21875,-52.05655 9.21875,-80.10417 0,-88.66667 -31.15626,-164.17709 -93.48959,-226.51042 C 764.15972,-768.84375 688.64931,-800 599.98264,-800 Z m -41.09375,73.33333 h 80 l -1.68403,305.12153 -169.24865,151.15771 -53.87595,-59.30998 145.90238,-133.32342 z M 79.982638,-680 v 80 H 239.98264 v -80 z m -40,160 v 80 H 239.98264 v -80 z m 40,160 v 80 H 239.98264 v -80 z" /></g><g
       style="fill:#ffffff"
       id="g2"
       transform="matrix(0.05,0,0,0.05,0,48)"><path
         id="path1-6"
         d="m 180,-840 c -16.5,0 -30.63614,5.87052 -42.38281,17.61719 C 125.86386,-810.62948 120,-796.5 120,-780 v 117.46094 h 60 V -780 h 600 v 400 H 580 v 200 H 180 V -297.46094 H 120 V -180 c 0,16.5 5.86386,30.63614 17.61719,42.38281 C 149.36386,-125.86386 163.5,-120 180,-120 h 420 l 240,-240 v -420 c 0,-16.5 -5.87052,-30.62948 -17.61719,-42.38281 C 810.62948,-834.12948 796.5,-840 780,-840 Z" /></g></g></svg>
